# xmcd
# 
# Track frame offsets:
#     150
#     42257
#     68282
#     99932
#     127297
#     163265
#     187630
# 
# Disc length: 3088
# 
# Revision: 2
# Processed by: cddbd v1.5.2PL0 Copyright (c) Steve Scherf et al.
# Submitted via: BonkEnc v1.0.8
# 
DISCID=520c0e07
DTITLE=George Young - Chant
DYEAR=1985
DGENRE=Fusion
TTITLE0=Chant
TTITLE1=Reggie
TTITLE2=Leetah
TTITLE3=Chinas&Criollas
TTITLE4=The Snake
TTITLE5=Ode To A Friend (Sidney Bechet)
TTITLE6=New Moon
EXTD=
EXTT0=
EXTT1=
EXTT2=
EXTT3=
EXTT4=
EXTT5=
EXTT6=
PLAYORDER=
